<?xml version="1.0" encoding="UTF-8"?>
<svg width="344px" height="695px" viewBox="0 0 344 695" version="1.1" xmlns="http://www.w3.org/2000/svg" xmlns:xlink="http://www.w3.org/1999/xlink">
    <!-- Generator: Sketch 55.2 (78181) - https://sketchapp.com -->
    <title>Group 9</title>
    <desc>Created with Sketch.</desc>
    <g id="Page-1" stroke="none" stroke-width="1" fill="none" fill-rule="evenodd">
        <g id="Desktop-HD" transform="translate(-1256.000000, -111.000000)" fill="#F97732" fill-rule="nonzero">
            <g id="Group-9" transform="translate(1256.000000, 111.000000)">
                <path d="M162,520.681564 L162,173.26003 C162,157.383951 151.941176,87 81.5294118,87 L0,87 L0,608 L77.5588235,608 C127.058824,608 162,566.192991 162,520.681564 Z" id="Path"></path>
                <path d="M84.5630713,0.00177556818 C157.696527,0.00177556818 214.815356,31.7489347 243.641682,89.4229403 C264.727605,132.017045 265.795247,169.849077 265.795247,173.817472 L265.795247,521.184304 C265.795247,589.705256 232.698355,644.204545 172.64351,674.099787 C131.539305,693.941761 88.5667276,695 84.5630713,695 L344,695 L344,0.00177556818 L84.5630713,0.00177556818 Z" id="Path"></path>
            </g>
        </g>
    </g>
</svg>