<?xml version="1.0" encoding="UTF-8"?>
<svg width="24px" height="24px" viewBox="0 0 24 24" version="1.1" xmlns="http://www.w3.org/2000/svg" xmlns:xlink="http://www.w3.org/1999/xlink">
    <!-- Generator: Sketch 55.2 (78181) - https://sketchapp.com -->
    <title>Shape</title>
    <desc>Created with Sketch.</desc>
    <g id="Page-1" stroke="none" stroke-width="1" fill="none" fill-rule="evenodd">
        <g id="Desktop-HD" transform="translate(-331.000000, -2883.000000)" fill="#000000">
            <path d="M349.305,2903.418 C348.313,2904.033 347.145,2904.388 345.894,2904.388 C342.306,2904.388 339.394,2901.469 339.394,2897.874 C339.394,2894.279 342.306,2891.361 345.894,2891.361 C349.481,2891.361 352.394,2894.279 352.394,2897.874 C352.394,2899.128 352.04,2900.299 351.427,2901.293 L355,2904.873 L352.879,2906.999 L349.305,2903.418 Z M340.401,2902.982 C337.185,2902.792 334.376,2901.079 332.685,2898.555 L337.034,2896.044 C337.414,2896.537 337.883,2896.958 338.417,2897.281 C338.402,2897.478 338.394,2897.677 338.394,2897.877 C338.394,2899.849 339.156,2901.643 340.401,2902.982 Z M345.894,2893.39 C348.378,2893.39 350.394,2895.41 350.394,2897.899 C350.394,2900.388 348.378,2902.408 345.894,2902.408 C343.41,2902.408 341.394,2900.388 341.394,2897.899 C341.394,2895.41 343.41,2893.39 345.894,2893.39 L345.894,2893.39 Z M344.394,2900.379 L343.394,2900.379 L343.394,2898.375 L344.394,2898.375 L344.394,2900.379 Z M346.394,2900.379 L345.394,2900.379 L345.394,2897.373 L346.394,2897.373 L346.394,2900.379 Z M348.394,2900.379 L347.394,2900.379 L347.394,2895.419 L348.394,2895.419 L348.394,2900.379 Z M340.5,2883.012 L340.5,2888.025 C337.975,2888.276 336,2890.409 336,2893 C336,2893.787 336.182,2894.531 336.507,2895.194 L332.171,2897.697 C331.424,2896.296 331,2894.697 331,2893 C331,2887.649 335.213,2883.273 340.5,2883.012 Z M345.272,2890.403 C344.476,2889.097 343.098,2888.184 341.5,2888.025 L341.5,2883.012 C346.577,2883.263 350.664,2887.308 350.98,2892.368 C349.643,2891.132 347.856,2890.377 345.894,2890.377 C345.685,2890.377 345.477,2890.386 345.272,2890.403 Z" id="Shape"></path>
        </g>
    </g>
</svg>