<?xml version="1.0" encoding="UTF-8"?>
<svg width="24px" height="24px" viewBox="0 0 24 24" version="1.1" xmlns="http://www.w3.org/2000/svg" xmlns:xlink="http://www.w3.org/1999/xlink">
    <!-- Generator: Sketch 55.2 (78181) - https://sketchapp.com -->
    <title>Shape</title>
    <desc>Created with Sketch.</desc>
    <g id="Page-1" stroke="none" stroke-width="1" fill="none" fill-rule="evenodd">
        <g id="Desktop-HD" transform="translate(-1060.000000, -2886.000000)" fill="#000000" fill-rule="nonzero">
            <path d="M1072,2888 C1077.514,2888 1082,2892.486 1082,2898 C1082,2903.514 1077.514,2908 1072,2908 C1066.486,2908 1062,2903.514 1062,2898 C1062,2892.486 1066.486,2888 1072,2888 Z M1072,2886 C1065.373,2886 1060,2891.373 1060,2898 C1060,2904.627 1065.373,2910 1072,2910 C1078.627,2910 1084,2904.627 1084,2898 C1084,2891.373 1078.627,2886 1072,2886 Z M1076,2903 L1068,2903 L1068,2897 L1076,2897 L1076,2903 Z M1070,2897 L1070,2895 C1070,2893.896 1070.897,2893 1072,2893 C1073.103,2893 1074,2893.896 1074,2895 L1074,2897 L1075,2897 L1075,2895 C1075,2893.344 1073.657,2892 1072,2892 C1070.343,2892 1069,2893.344 1069,2895 L1069,2897 L1070,2897 Z" id="Shape"></path>
        </g>
    </g>
</svg>