<?xml version="1.0" encoding="UTF-8"?>
<svg width="151px" height="258px" viewBox="0 0 151 258" version="1.1" xmlns="http://www.w3.org/2000/svg" xmlns:xlink="http://www.w3.org/1999/xlink">
    <!-- Generator: Sketch 55.2 (78181) - https://sketchapp.com -->
    <title>Group 5</title>
    <desc>Created with Sketch.</desc>
    <g id="Page-1" stroke="none" stroke-width="1" fill="none" fill-rule="evenodd">
        <g id="Desktop-HD" transform="translate(-191.000000, -1521.000000)" fill="#EEE6DF" fill-rule="nonzero">
            <g id="Group-5" transform="translate(191.000000, 1521.000000)">
                <path d="M90,197.832402 L90,77.8019299 C90,72.3169121 86.4607843,48 61.6862745,48 L33,48 L33,228 L60.2892157,228 C77.7058824,228 90,213.55612 90,197.832402 Z" id="Path"></path>
                <path d="M0,0 L0,17.3160511 L61.559415,17.3160511 C86.7720902,17.3160511 106.463742,28.3103693 116.401584,48.2833807 C123.670932,63.0340909 124.039001,76.1356534 124.039001,77.5099432 L124.039001,197.806108 C124.039001,221.535511 112.628885,240.409091 91.9250457,250.762074 C77.754418,257.633523 62.9396709,258 61.559415,258 L151,258 L151,0 L0,0 Z" id="Path"></path>
            </g>
        </g>
    </g>
</svg>