<?xml version="1.0" encoding="UTF-8"?>
<svg width="82px" height="141px" viewBox="0 0 82 141" version="1.1" xmlns="http://www.w3.org/2000/svg" xmlns:xlink="http://www.w3.org/1999/xlink">
    <!-- Generator: Sketch 55.2 (78181) - https://sketchapp.com -->
    <title>Group 9</title>
    <desc>Created with Sketch.</desc>
    <g id="Page-1" stroke="none" stroke-width="1" fill="none" fill-rule="evenodd">
        <g id="Desktop-HD" transform="translate(-307.000000, -4516.000000)" fill="#FA7C39" fill-rule="nonzero">
            <g id="Group-9" transform="translate(307.000000, 4516.000000)">
                <path d="M49,107.575419 L49,42.2254952 C49,39.2392077 47.0751634,26 33.6013072,26 L18,26 L18,124 L32.8415033,124 C42.3137255,124 49,116.13611 49,107.575419 Z" id="Path"></path>
                <path d="M0,0 L0,9.4634233 L33.4296161,9.4634233 C47.1212675,9.4634233 57.8147471,15.471946 63.2114564,26.387429 C67.1590494,34.4488636 67.3589275,41.6090199 67.3589275,42.3600852 L67.3589275,108.103338 C67.3589275,121.071733 61.1627057,131.386364 49.9195612,137.044389 C42.2242535,140.799716 34.179159,141 33.4296161,141 L82,141 L82,0 L0,0 Z" id="Path"></path>
            </g>
        </g>
    </g>
</svg>